<svg width="44" height="44" version="2.0" 
  xmlns="http://www.w3.org/2000/svg" 
  xmlns:xlink="http://www.w3.org/1999/xlink">
  <g id="i__clear-night" transform="translate(-563 325)">
    <use xlink:href="#ip__moon" transform="translate(568 -316)" fill="#FFF"/>
    <use xlink:href="#ip__star1" transform="translate(583 -311)" fill="#FC3"/>
    <use xlink:href="#ip__star2" transform="translate(596 -303)" fill="#9FAFE5"/>
    <use xlink:href="#ip__star2" transform="translate(592 -320)" fill="#697B94"/>
  </g>
  <defs>
    <path id="ip__moon" d="M0 14.371C0 22.373 6.487 28.86 14.489 28.86c3.554 0 6.81-1.28 9.33-3.403.362-.305.094-.878-.38-.865-.142.005-.284.007-.427.007-8.002 0-14.49-6.487-14.49-14.49 0-3.417 1.184-6.557 3.163-9.035.295-.37-.002-.928-.463-.822C4.793 1.733 0 7.492 0 14.372z"/>
    <path id="ip__star1" d="M4.764.689a.25.25 0 01.472 0l.886 2.58a.25.25 0 00.237.169h2.836a.25.25 0 01.142.456l-2.27 1.56a.25.25 0 00-.096.288l.873 2.542a.25.25 0 01-.378.287L5.142 6.973a.25.25 0 00-.284 0L2.534 8.57a.25.25 0 01-.378-.287l.873-2.542a.25.25 0 00-.095-.287L.664 3.894a.25.25 0 01.14-.456h2.837a.25.25 0 00.237-.17l.886-2.58z"/>
    <path id="ip__star2" d="M3.265.652a.25.25 0 01.47 0l.532 1.475c.035.099.13.165.235.165h1.66a.25.25 0 01.137.459L5.002 3.6a.25.25 0 00-.098.294l.505 1.402a.25.25 0 01-.372.294l-1.4-.917a.25.25 0 00-.274 0l-1.4.917a.25.25 0 01-.372-.294l.505-1.402a.25.25 0 00-.098-.294L.7 2.75a.25.25 0 01.137-.458h1.66a.25.25 0 00.235-.165L3.265.652z"/>
    <!-- <path id="ip__star3" d="M3.265.652a.25.25 0 01.47 0l.532 1.475c.035.099.13.165.235.165h1.66a.25.25 0 01.137.459L5.002 3.6a.25.25 0 00-.098.294l.505 1.402a.25.25 0 01-.372.294l-1.4-.917a.25.25 0 00-.274 0l-1.4.917a.25.25 0 01-.372-.294l.505-1.402a.25.25 0 00-.098-.294L.7 2.75a.25.25 0 01.137-.458h1.66a.25.25 0 00.235-.165L3.265.652z"/> -->
  </defs>
</svg>
