<svg width="44" height="44" version="2.0" 
  xmlns="http://www.w3.org/2000/svg" 
  xmlns:xlink="http://www.w3.org/1999/xlink">
  <g transform="translate(-624 325)">
    <use xlink:href="#ip__snow" transform="translate(632 -319)" fill="#9FAFE5"/>
  </g>
  <defs>
    <path id="ip__snow" d="M14.903 15.59a1.014 1.014 0 00-.396-.447l-.016-.009c.189.11.329.27.412.456zm-.412-.456l.016.01a.996.996 0 01-.016-.01zm-1.366 1.367zm.353.358l-.002-.002h-.002L11.99 16l-5.862 3.384-4.138-1.768a1 1 0 10-.786 1.84l2.76 1.178-3.465 2a1 1 0 101 1.732l3.464-2-.359 2.979a1 1 0 101.986.239l.387-3.21.15-1.251.001-.007 6.328-3.653.021-.604zm-.002-.002l.002.002a1 1 0 01-.004-.003l.002.001zm-.452-.601zM9.39 27.2a1 1 0 101.2 1.6l2.541-1.906L12.991 31a.96.96 0 00.965 1c.552 0 1.016-.448 1.035-1l.134-3.9 2.266 1.7a1 1 0 001.2-1.6l-2.586-1.94-.796-.596.23-6.673 5.413 3.125.538 4.468a1 1 0 001.986-.24l-.36-2.978 3.465 2a1 1 0 101-1.732l-3.464-2 2.759-1.178a1 1 0 10-.786-1.84l-2.972 1.27-1.16.495-.006.003L15.99 16l5.86-3.384 4.139 1.768a1 1 0 00.786-1.84l-2.76-1.178 3.465-2a1 1 0 10-1-1.732l-3.464 2c.115-.954.25-2.083.359-2.978a1 1 0 00-1.986-.24l-.387 3.21-.15 1.251-.001.007-5.861 3.384V7.5l3.6-2.7a1 1 0 00-1.2-1.6L14.99 5V1a1 1 0 00-2 0v4l-2.4-1.8a1 1 0 00-1.2 1.6l2.585 1.94 1.01.756.005.004v6.768l-5.862-3.384-.538-4.468a1 1 0 00-1.986.24l.36 2.978-3.465-2a1 1 0 10-1 1.732l3.464 2-2.759 1.178a1 1 0 10.786 1.84l2.972-1.27a3426.38 3426.38 0 001.166-.498L11.991 16l1.483.856a.993.993 0 01.004.003l-.02.604-.237 6.864L9.39 27.2z"/>
  </defs>
</svg>
