<svg width="44" height="44" version="2.0" 
  xmlns="http://www.w3.org/2000/svg" 
  xmlns:xlink="http://www.w3.org/1999/xlink">
  <g transform="translate(-1016 324)" fill="#697B94">
    <use xlink:href="#ip__wind1" transform="translate(1021 -315)"/>
    <use xlink:href="#ip__wind2" transform="translate(1023 -298)"/>
    <use xlink:href="#ip__wind3" transform="translate(1021 -303)"/>
  </g>
  <defs>
    <path id="ip__wind1" fill-rule="evenodd" d="M10.236 8.019l.016.002c2.556.23 5.223.856 7.777 1.07l.004.001.3.026h.002c1.598.139 3.407.297 5.067-.437h.002c1.91-.843 2.878-2.615 2.523-4.624-.33-1.869-1.931-3.845-4.3-4.032l-.12-.01c-.369-.026-2.346-.11-3.808.72-.447.253-.447.851-.084 1.215.363.363.968.362 1.452.191.91-.322 2.06-.286 2.28-.273l.069.005c1.489.118 2.474 1.344 2.679 2.506v.002c.097.548.148 1.895-1.443 2.598-1.225.54-2.714.41-4.156.286h-.004l-.304-.026c-2.553-.216-5.217-.842-7.762-1.07a2.14 2.14 0 01-.018-.002c-5.2-.509-8.447 1.746-9.753 2.905-.382.34-.356.932.013 1.285.373.355.956.331 1.35-.001 1.18-.998 3.917-2.756 8.217-2.337z"/>
    <path id="ip__wind2" d="M.726 2.937C2.071 1.923 5.226 0 9.812 0c1.557 0 5.383.277 7.259 2.846 1.34 1.835 1.217 4.55-.285 6.316v.001C15.774 10.353 14.275 11 12.693 11c-.59 0-1.192-.089-1.786-.276h-.002c-1.11-.349-1.944-1.107-2.45-2.217-.215-.471.096-.99.599-1.117.492-.124.973.185 1.224.627.285.499.682.825 1.2.987 1.431.449 2.984.05 3.872-.99l.002-.003c.95-1.12 1.04-2.966.2-4.119C14.14 1.957 10.8 1.807 9.81 1.807c-3.888 0-6.606 1.585-7.805 2.456-.401.29-.972.282-1.327-.063-.372-.36-.366-.952.047-1.263z"/>
    <path id="ip__wind3" fill-rule="evenodd" d="M31.923 1.135l-.002-.003C30.93.403 29.628.022 28.054.004h-.03a9.68 9.68 0 00-2.741.313h-.002c-2.048.54-4.112.72-6.04.662h-.004C16.661.895 13.97.52 11.246.181l-.014-.001C5.781-.53 2.026 2.433.615 3.798c-.358.346-.31.909.068 1.232.392.333.995.289 1.375-.059 1.305-1.198 4.485-3.532 8.946-2.95l.014.002c2.785.345 5.531.726 8.163.81a22.856 22.856 0 006.56-.72 8.663 8.663 0 012.28-.256c1.195.014 2.146.275 2.827.776 1.18.871 1.336 2.26 1.325 3.011v.003c-.025 1.564-.759 3.069-1.87 3.834l-.002.001c-.627.433-1.443.661-2.358.663h-.013c-.4-.004-3.364-.114-3.99-2.59-.123-.489-.524-.897-1.028-.889-.503.01-.914.43-.832.927.569 3.458 3.987 4.405 5.854 4.405 1.286 0 2.46-.34 3.393-.98.001 0 .003 0 .004-.002 1.587-1.095 2.634-3.19 2.669-5.34v-.001c.029-1.89-.729-3.544-2.077-4.54z"/>
  </defs>
</svg>
