<svg xmlns="http://www.w3.org/2000/svg" viewBox="0 0 378 378" height="378" width="378">
<defs>
<clipPath id="A"><path d="M0 283.46h283.46V0H0z"/></clipPath>
<radialGradient id="B" spreadMethod="pad" gradientTransform="matrix(112.13882,0,0,-112.13881,163.83984,126.49805)" gradientUnits="userSpaceOnUse" r="1" cy="0" cx="0" fy="0" fx="0"><stop offset="0" stop-color="#f89734"/><stop offset=".38" stop-color="#f89734"/><stop offset="1" stop-color="#d3624a"/></radialGradient></defs>
<g transform="matrix(1.3333 0 0 -1.3333 0 377.9467)">
<g clip-path="url(#A)">
<path d="M48.1 190.04c1.8 1.65 1.92 4.4.32 6.23L33.55 212.7a4.4 4.4 0 0 1-6.23.31L10.9 198.18c-1.8-1.63-1.95-4.42-.32-6.24l14.85-16.42a4.4 4.4 0 0 1 6.21-.31zm16.38 44.52c1.8-.53 3.65.5 4.15 2.27l4.7 16.14c.53 1.76-.5 3.65-2.27 4.14l-16.13 4.7c-1.77.53-3.63-.5-4.16-2.27l-4.7-16.13c-.5-1.8.5-3.63 2.3-4.14zM86.7 255.8a3.2 3.2 0 0 1 2.62-3.69l15.92-2.55c1.7-.3 3.35.9 3.66 2.65l2.56 15.88c.25 1.73-.9 3.38-2.68 3.66l-15.85 2.58c-1.76.28-3.38-.92-3.7-2.68zm-14.4-68.4c-2.2-1.02-4.82-.04-5.8 2.18l-9.15 20.07c-1.03 2.2-.06 4.8 2.12 5.8l20.1 9.18c2.24 1 4.82.02 5.84-2.17l9.17-20.1a4.4 4.4 0 0 0-2.17-5.82zm1-72.8a7.7 7.7 0 0 0-10.3 3.7l-16.7 35.2c-1.8 3.92-.2 8.52 3.7 10.34l35.25 16.73c3.88 1.83 8.5.16 10.33-3.7l16.7-35.27c1.85-3.87.2-8.5-3.68-10.33z" fill="#4e626d"/></g>
<path d="M104.5 226.1l24.4-52.16a56.8 56.8 0 0 0 58.18 2.44 56.9 56.9 0 0 0 22.71-76.99c-14.95-27.48-49.5-37.64-76.98-22.7-13.46 7.32-22.75 19.38-26.96 32.96l-15.57-7.28a34.4 34.4 0 0 0-3.59-1.67l-33-15.4c9.4-24.3 27.07-45.58 51.72-59 55.26-30.07 124.7-9.55 154.78 45.7a114.2 114.2 0 0 1-45.71 154.76 112.9 112.9 0 0 1-54.16 13.82 115.2 115.2 0 0 1-55.79-14.46" fill="url(#B)"/></g>
</svg>