<svg xmlns="http://www.w3.org/2000/svg" version="1" viewBox="0 0 160 160">
  <g fill="#cb5800">
    <path d="M19.7 18.2C15 21 11 28.6 11 34.5c0 2.4 1 6.3 2.6 9.4 3 5 4 6 2.4 1-2.2-8-.2-18 5-25 1.7-3 3-4 2.8-4l-4 2zM35.4 17c-3.8 1.2-9.5 6.6-11.7 11.3-2.3 4.8-3 11.3-2 16.5 1 4.2-.5 13.5-3.6 21.5-1 4-1 7.2 1 9 3 2.5 5 2 12-2.8 3-2.5 7-4.5 7-4.5 2 0 6 8 9 16.8 3 8.6 5 12 9 16.7 3 4 3 4 2.7 11.5-1 9.3-1.7 22.3-1 27.2.6 2.8 1 3.8 2.6 3.8s2-1 2-8c0-7.2.4-9.6 4-19.5 5-13 4-12.5 19.5-12.5 10 0 17.4-1.4 23.6-4.6l5-2.4 10.5 13.2c9 11.3 11 14.2 12.7 20 2 6.5 2 9 .3 13.2-.5 1.2 0 1.6 2 1.6s2.7-.7 3.6-4c1.5-6 .2-17-3-26l-2.7-7.5 2-7.5c1.6-5.2 2.5-10.5 3-17.5.2-8.5 1-11 3.2-16 1.5-3.2 3-6.6 3-7.6 0-2 0-2-3 0-4 2-7.8 2-14 0-7.8-3-17-2-27.7 1l-9 3L80 61c-14.2-2-16-2.7-17.6-4.8-2-2-2.8-2.3-5-1.4-10.4 4-23-7-21-18 1-5 5.7-9.4 9.6-9.4 3 0 4 1.5 1.6 2.4-2.6 1-5 6.8-4.2 10.6 1.6 9.4 12.7 11.7 19 4 2.6-3 3-4 2.5-9.6-1-6-1-6.4 1-6.4 1 0 2.6-.3 3.3-1 1-.5 1-1-.4-1.3h-4c-1.4 0-4.5-1.4-7-3.3-6.8-5-15-6.7-23-4.3zm21.4 17.2c1.6 3.5 0 6.8-3 6.8-4.6 0-6-3.7-3.2-7.8 2-3 4.5-2.5 6.2 1z"/>
    <path d="M109.8 107.2c-1.5 1.2-.8 2.3 6.2 10.3 7.5 8.5 8 9.3 8 13.6 0 3-.7 7-1.5 9-2 5-2 5 .8 5 3 0 5.7-5 5.7-11.3 0-4.5-.5-5.5-7.6-14.2-10-12.5-9.6-12-11.6-10.6zm-36 9.8c-1.8 4.7-1.8 5.5-.3 13.6 1 4.7 1.4 9.7 1 11-.5 2-.2 2.4 2 2.4 2.3 0 2.5-.3 2.5-4.8 0-6-2-25.5-3-26.4-.3-.4-1.3 1.5-2.3 4.2z"/>
  </g>
</svg>
