<svg xmlns="http://www.w3.org/2000/svg" version="1" viewBox="0 0 160 160">
  <g fill="#cb5800">
    <path d="M109.5 39.6c-13.6 4-15 4-30 1.8-12.2-1.8-17.4-1.4-24 2-2.4 1.4-6.2 3-8.4 3.6-3 1-4 .7-9-1.7-5-2.5-6-2.7-16-2.5-8 0-11-.2-14-1.5l-3-1.6L7 42c2.5 2.8 6.6 4.6 12.8 5.5 2.8.4 6 1.7 7.5 3l2.7 2.3-5.7 5.4c-4 3.8-6 6-6 8 0 1.3-2 5.7-4.5 9.8-5.2 8.6-5.5 11-2 14 4 3 6.3 3.4 9.2 1.5 1.4-1 5.2-2 8.5-2.5 4-.6 7-1.8 9.3-3.4 2-1.4 3.7-2.6 4-2.6 1 0 25.3 13.4 27.8 15.3 1.3 1 2.2 4 3.3 11.5 1 9.4 1 10.6 0 12.7-3 3.4-2 3.7 2 3.3l3-.3 2-13 2-12.8 5.3-1.3c7.2-2 12-4.4 20-10.8 8-6.5 10.6-8 12.4-7.4.7.3 4.2 5.4 8 11.4 6 10.2 6.4 11 6.4 17 0 4-.6 7-2 8.7l-2 2.7h8.8l1.3-9.6c.8-5.2 1-12.4.8-16-.7-8.4.8-17 3.5-20l3-2.4c1 0 1.5 6 2 13 .7 12 1 13.4 3 14.7 2 1.3 2 1.3 1.7-.4-.2-1-.8-11-1.3-22.4-1-28-3.5-34-15-39-7-3-15-3-29.6 1z"/>
    <path d="M5 49.7C7.3 53 17.7 57.5 20 56c1.5-1 1-1.3-6-3.5-3-1-6.6-2.5-8-3.4-2.2-1-2.2-1-1 1zM114 93l-3.4 2.7 3.7 3.3c7 6.2 8.5 12 4 17.7L116 120h3.4c2.8 0 3.8-.6 5.5-3.4 1-2 2-5 2-8 0-4-1-5.7-5-11.6l-5-7-4 3zm-56.5 9.3l2 10c1.4 7.7 1.4 8-.6 10.8l-2 3h2c4.4 0 6.2-3 5.4-12-1-9-1.3-10-5-12-3.4-1-3.4-1-3 1z"/>
  </g>
</svg>
