<svg xmlns="http://www.w3.org/2000/svg" version="1" viewBox="0 0 160 160">
  <path fill="#cb5800" d="M43.2 16C34.5 20.6 29.5 32.8 32 43.6 34.3 54.6 42 61 52.4 61c13 0 20.6-8.7 20.6-23.6 0-9-3.3-16.3-9.2-20.2-5.6-3.7-14.6-4.2-20.6-1zm60.8-1c-5 2.2-8.4 5.6-10.8 11-5 11-2.5 24.4 6.2 31.4 3.2 2.7 4.7 3 11 3.4 6.7.4 7.4.2 12-3 10-6.7 13-20.2 7.3-32-4-8-8.7-11-17-11.5-3.4-.2-7.3.2-8.6.7zM58 66c-19 2-27 5.6-30.5 14.2-4 10-4.2 39-.3 43 3 3 8 2 10-2 1-1.8 1.8-3 2-2.5.4.4 1.8 5.3 3.3 10.8C44 135 46 141 46.7 142.7l1.5 3.3H58c9.7 0 9.8 0 10.8-2.7.6-1.6 1.6-7.8 2.2-13.8 2.5-22.2 7-39 10.7-40.2C85 88 88.7 101 92 125c1.2 9 2.6 17.5 3 18.7 1 2.2 1.5 2.3 11 2.3h10l1.4-3.3c.8-1.7 2.6-8 4-14 1.7-6 3.2-10.7 3.6-10.7.4 0 1 1.3 1.3 3 1 5.4 9.5 5.4 11.7 0 2-4.5.8-34-1.4-40.2-2.5-6.7-7-10.3-15.3-12.2-14.7-3.3-43-4.5-63.3-2.5z"/>
</svg>
