<svg xmlns="http://www.w3.org/2000/svg" version="1" viewBox="0 0 160 160">
  <path fill="#cb5800" d="M54.4 15.6c-1.8 1-4.2 2.6-5.5 4L46 22h3c5 0 15 3 17 5 1.8 1.8 2 2.2.6 3-2.3 1.4-9 1.2-14.6-.5-2.6-.8-5-1.3-5-1.2 0 .2 0 2 .7 4 2 7.4 11 11 27.8 11H86l-.5 7.6c-.3 4-.8 9-1.2 11l-.5 4-6.2-1c-11.3-1-14.6 3-13 15l.4 6H42.6L42 74c-.5-14-2-19.5-7-23.6-3.5-3-8.4-3.5-7.3-.8 2.7 7 2.6 18.2-.2 18.2-2 0-5.4-8-6-15-.3-3-1-6-1.4-6-2 0-6 6-6 10.5-2 10.6 1 19 11 29.6 11 12 13 12 39 7 2-1 3 0 3 2 1 2 0 3-2 5-1 1-4 3-5 3s-3 1-3 1c0 2 7 2 9 0l2-2 2 13.3c1 9.2 2 13 3 13.4 2 .2 2 0 0-16 0-4.6 0-5 2-5 1 0 3.7-1.7 5.5-3.7 3-3.4 3.5-3.4 5-2 1 1 2 2.5 2 3 0 1.8-4 5-6.4 6-1 .7-3 1.7-3 2.6-1 3 6.3 1 9.3-3 3-3.5 4.8-4 7.7-1.7 2 1.2 1.2 1.3-1 4-1.8 1-4 3-5 3.2-2 1-3.5 4-2 4 1.6 0 6.4-3.3 9.4-6.4 4-4 6.6-4.4 8.8-1 2 1.5 2 2 3 1s2-1 3 2c1 1.4 2 3 3 2.2 1-.6 2 .5 3 2.2s2 3 2.3 2c1-.6 2 1 3 3 1.3 3 1.2 3-.7 7-2 4-1.7 9 1 9.4 2 .6 20.7-17 26-24.7 1-2 1-2.3 0-3-2-1.6-8-1-11 .5-2.3 2-3 2-6 0-1.5-1-3-2-2.4-2 0-.7-1-1.8-3-2.7-2-1-3-2-2.7-2.5 0 0-1-1.3-2.7-2-2.5-1.4-3-2-2-3s1-1.8-1-2.8c-3-2-2.4-5 2-9.6 4.6-4.6 7-10 4.2-9.4-1 .8-2.2 2-3 3-1.3 3-4.3 6-6 6-.3 0-1.4-1-2-2.4-1-2-1-3 2.5-6 2.5-2 3.5-4 3.5-6 0-4-2.5-4-3-.6 0 1-1.7 3-3 5l-3 2.2-2-2.6-2-2.6 3-3c1-1.8 3-4 3-5 0-2 0-2 13.3-1 5 .4 8 .3 8 0 0-1-3-2-16.6-3.6-5.8-.6-10-1.3-10.7-1.5 0 0 0-1 1-2 2-2 2-6 1-8-1-1.3-1-1-2 .7-1 1-1 2.6-1 3 1 1.6-5 6.5-8 6.5s-3-.5-2.3-3.6c5-28 5-27-5-37.3-9-9-17-13-25-13-3.2 0-7.3.4-9 1.3zm51 56c2.4 1 2 2.7-1.4 6l-3 2.8-2.2-2.2-2.2-2.2 2.4-2.5c2.4-2.6 3.7-3 6.4-2zm-28 28.8c1.5 2.4 1.4 2.6-2 5.5-2 1-4 2-4.5 2-2-1-1-6 1-8 2-3 3-3 5 0z"/>
</svg>
