<svg xmlns="http://www.w3.org/2000/svg" version="1" viewBox="0 0 160 160">
  <g fill="#cb5800">
    <path d="M24.6 30c-4.3 2.5-8.3 5.5-9 6.6-.4 1-2.7 4-4.8 6.6l-4 4.7 3.2 4c1.6 2.2 3 5 3 6s1 1 3 .2c2.5-.5 3.3 0 8.6 6 3.4 4 6.7 9 7.7 11.5l1.7 5-5 4.4c-3 3-5 6-7 10-1 3-2 6-3 6.3l-2 3c-.2 2 0 2.3 4 2.3h4l4-8 4-7.7 8-2 8-1.7L66 91c12.6 2.3 19.7 3 28 3 6 0 11.7 0 12.6-.3 1.2-.6 4.6 3 10.8 10.3l9 11v5.8c0 5-.2 6-2 7-1 1-2 2.5-2 3.7 0 2 .7 2.4 4.7 2.4h5l3-10.8c4-11 4-9-3.2-21-2-3.3-3.5-7.3-3.5-9 0-3 4-20.7 4.8-21.6 1.3-1.5 2.4 3.4 2.4 11 0 15 3 20 11 20 5 0 8-1.5 8-4S150 96 147 98c-2.7 2-5.3.4-6.6-4.2-.4-2-1-8-1-14 0-5.4-.3-11-1-12.3-1.2-3.8-6-8-12-10.8-5.7-2.5-6-2.5-27-2.3-25.3.4-23.6 1-35.6-12.2C56 35 54.4 34 45 29c-5.6-2.8-10.6-5-11-5-.4 0-4.3 2.3-8.7 5z"/>
    <path d="M44 97c-6.6 1.4-7.4 2-9 5-2.4 4.5-2.5 6 0 6 1 0 2.6-1.4 3.8-3.4 1.8-3 2.8-3.5 11-5.6 5-1.2 9.2-2.4 9.2-2.5 0-1-9-.8-15 .5zm54.6 6.8c-.3.5 2.4 3.7 6 7.2 6.4 6.4 6.4 6.5 6.4 12 0 4.2-.4 6-1.5 6.4-.8.3-1.5 1.7-1.5 3 0 2.3.4 2.6 3.5 2.6 3.4 0 3.5 0 3.5-4 0-2.4.5-4 1.5-4.4 1-.4 1.5-2 1.5-5 0-3.8-.6-4.8-6.6-11.4-5.2-5.7-7-7.2-9.4-7.2-1.6 0-3 .4-3.4.8z"/>
  </g>
</svg>
