<svg xmlns="http://www.w3.org/2000/svg" version="1" viewBox="0 0 160 160">
  <path fill="#cb5800" d="M86 18c-13 2.4-23 9-27.5 18.5-2.5 5-2.6 6-2.4 18.7l1 13.3-3 6.2-4 6.3 2.3 2c1 1.2 2 3.2 2 4.3 0 1 1 2.6 1.7 3.3 0 .6 1 1.5 1 2-1 .4 0 1.3 1 2 1 .5 2 2.3 2 5 .3 2.2.7 4.3 1 4.5 1 1 23-1 29.2-3 8.4-2 10.8-5 10-12-1.6-12-1.2-11-10-14C86 74 80 72 77 70c-5.5-3-19-15-18-16 .6-.2 2 .6 3.7 2 4 4 11.2 7 27 12l14.5 4 1.3 8c4 24-1.5 28-41.6 31-23 2-28 3-35 10-5 4.2-10.6 13-12 18.5l-1 2 8-2.5c11-3.8 22.4-4 42.4-2 17.6 2 27 1.5 37.2-1 27-7 41.7-27.4 41.7-58 0-24.4-9.5-44.4-25.6-54-8-5-24.3-8-34-6z"/>
</svg>
