<svg xmlns="http://www.w3.org/2000/svg" version="1" viewBox="0 0 160 160">
  <path fill="#cb5800" d="M77 16.8c0 2.6-.6 5.7-1.4 6.8-.8 1-1.6 4.3-1.8 7l-.3 5-6.5.6c-39.4 4-47.6 5-48.5 6-1.6 1.5 1 4.3 4.4 4.6 1 .2 3 .8 3 1.5S21 61 16 75.5c-4.8 14.5-9 27.3-9 28.7 0 8.8 18.4 15 29.5 10 4.5-2 9.5-7.4 9.5-10 0-1-4.3-13.6-9.5-28S27 49.2 27 48.5c0-1.3 3.4-1.5 23.7-1.5h23.6l-.6 20.7c-.4 11.5-.7 30.4-.7 42V131h-4c-3 0-4.3.6-6 2.6-1 1.5-2 3.3-2 4 0 1-1.4 1.4-5 1.4-5.3 0-8 2.2-8 6.7v2.3h31.5c34.6 0 34 0 31-6-1.3-2.6-2-3-6.7-3.2-4.4-.2-5.3-.6-5.6-2.3-.7-3.5-3.3-5.5-7.2-5.5h-3.7l-.6-12.2c-.4-6.6-.7-25.5-.7-42V47h23.5c14 0 23.5.4 23.5 1 0 .5-4.3 12.7-9.6 27.2s-9.6 27.4-9.6 28.6c0 3.4 3.2 7.3 8.3 10 6 2.8 16 3 22 .3 4.8-2 9.8-7 9.8-9 0-1-4.2-13.4-9.4-27.6-5.5-14.5-10-27-10-28s1-2 2-2c3.5 0 5-1 5-3.3 0-2-.4-2.4-6-3L108 38l-21-2.3-.4-5.3c-.2-3.5-.8-5.5-1.8-6-.8-.2-1.4-1.8-1.4-4 0-6-1-8.2-3.2-8.2s-2.3.8-2.3 5zm-43 62c4 11.2 6.7 21 6.4 21.4-.3.4-6.8.8-14.5.8-11 0-14-.3-14-1.3S23 64.5 25 58c.3-.7.8-1 1.2-.6.4.3 3.7 10 7.4 21.3zm107-.7c3.8 12 6.7 22 6.4 22-.3 1-6.8 1-14.5 1-11 0-14 0-14-1 0-2 13-43 14-43 0 0 4 10 8 21z"/>
</svg>
