<svg xmlns="http://www.w3.org/2000/svg" version="1" viewBox="0 0 160 160">
  <path fill="#cb5800" d="M125 8.2c-2 5.8-5.4 7.5-19 9.4-6 .8-13.6 2.4-16.7 3.5-15 5.6-26 17-30 32-.8 4-1.7 7-1.8 7-.2 0-3.3-1.2-7-3.3-5.4-3-6.4-4.2-6-6 .4-2-.4-2.3-11.5-5l-12-3 8.2 8.8c4.4 5 8.3 9 8.6 9 .3 0 1-.6 1.6-1.4 1-1.2 7.6 2.4 39 21 21 12.4 38.4 23 38.7 23 1 .6 1 1.8 1.8 3 .6 2-1 3-14.6 10l-33 18L54 144l-.7-7c-.3-4-1.4-10.6-2.3-15-3.6-15.6-1-29 7.5-38l4-4-6.7-4c-7.4-5-7.6-5-13 3.3-7.7 11.5-9.2 28.4-4 43l5.2 14.4c2.3 6.5 2 9.2-1.7 13.5-1.4 1.8-2.5 3.6-2.5 4 0 2 4 1.5 6.8-.6 1.6-1 20-10.6 41-21.5l38.7-20 4.7 2.8 4.8 2.6-1-3.8-.7-4.3c0-.2 2-1 4.3-2l4.2-1-4-2.4c-2-1.4-4.3-2.6-4.7-2.7-.3-.3-1.2-22-2-48.4-1-43-1.4-48-3-48.4-1-.2-2 1-3 4zm.3 50.5c-.3 36.7-.3 37.8-2.3 38.5-1.5.5-7.7-2.6-26-13.5L73 69.5l.5-5.5C75 51.3 80.3 42.2 90 36c3-2 10-4.8 16-6.6 6-1.8 13-4.4 15.3-5.8l4.2-2.6-.2 37.7z"/>
</svg>
