<svg xmlns="http://www.w3.org/2000/svg" version="1" viewBox="0 0 160 160">
  <g fill="#cb5800">
    <path d="M78.3 14.7c.4.3 1 .3 1.4 0 .3-.4 0-.7-.7-.7s-1 .3-.7.7zM52.5 16c-10 .6-13.5 2-22 8.8-3 2.2-6.7 4.7-8.6 5.7-9 4.3-12 10.5-9 15 1 1.2 1 4.3 1 7.8v6l3-4.5c5-6.4 11-8 20-5.7l4.3 1 3 12c1 7 3 17 4.2 23L51 97l-5.5 7-5 7 3 13.6c3 12 3 13 6 14 1.4.5 2.7.7 3 .4 0-.3-.3-5.7-1-12L50 115l8-4.3 8-4 13.6 2.2c10 1 13.3 2 13 3l-.2 7c0 10 4.3 19 12.8 24 17.6 11 40.4.3 42-19.7.7-8.3-1-14-6-21.6-3.3-5-13-14-16-15-.7-.3-.6-1.6.4-4.7l1.4-4h11.3c12.6 0 13 0 9-6-3.3-5-6.4-6.6-14.2-8.4-3-1-8-2-9-3-12-7-19-8.5-25-5-3 1.4-3 1.5-1 3 8 5.5 15 12.2 15 13 0 2-14 30.7-15 30.7v-2c1-2.4 8-25 8-26 0-.6-5.4-5-12.4-10-16-9.7-16.7-10-19-17-2-4.3-6.3-21-6.3-23 0-1.7 19.6.7 30 3.3 6 2 11.4 3 11.6 3l-12-5C77 17 69 15 52.5 16zm74 99c2 1.7 2.5 3 2.5 5.8 0 4.3-1.6 6.7-5.3 8-8 3-14.3-7.3-8.2-13.3 3-3 7.3-3.2 11-.4zM82 15.3c0 1 15 5.6 20 6 2.8.4 5 .5 5 .3-1.3-1-25-7-25-6.3z"/>
    <path d="M31.7 86.3l-9 5.2.7 13c.4 7.2 1 14.2 1.2 15.7.5 2.6 3.8 4.7 5.2 3.4.3-.4.8-6 1-12.6l.4-12 6-1 6-1.3-.4-7.5c-.2-4.2-.7-7.7-1.3-7.8-.5-.2-5 2-9.8 5z"/>
  </g>
</svg>
