<svg xmlns="http://www.w3.org/2000/svg" version="1" viewBox="0 0 160 160">
  <path fill="#cb5800" d="M121.5 20.2C90.5 29 80 34.6 72.2 46.8c-4.6 7-5.7 13.6-3.7 21.4 1 3.4 2.3 7.3 3 8.6 1.5 2.2 1.5 2.5 0 4.3-1 2-2.6 2-4 2s-3 1-4.8 3L60 88l5.4 6.6c5 6 15.8 16 17.5 16 0 0 2-1.3 3-3 2-2.3 2-3.2 1-4.3-1-1-1-2 .4-3 2-2 2-2 7.7 1 16.8 8 34-1 44.4-22 2-5 6-15.6 8.5-24 5.4-19 5.4-19-5-29-9-9-10-9.4-22.6-6zm11 7.8c1 1.8-1.5 4-6 5-20.5 5.2-33 10.8-40.5 18-4 4-5.5 6.7-8.6 14.5-.7 1.7-1 1.5-1.2-1.2-.2-1.8.6-5.3 1.7-7.8 5-13 15-19.8 39-26.6 10-3 14-4 15-2zm-116 64c-7.8 3.3-12 11.5-9.5 19 1.6 5.8 8.4 12.2 15.4 15 12.3 4.5 29.5 1.2 43.8-8.6 3.8-2.5 7-5 7.3-5.3.2 0-2-3-4.8-5l-5.2-5-3.5 4c-7.3 10-19.5 17-30.5 17-6 0-12.5-2-12.5-4.2 0-.7.5-.8 1-.5 2.4 1.5 14 .6 17.8-1.4 5.2-2.5 5.6-3.3 3.3-6-1-1.4-2-4-2-5.7 0-2-2-4-3-5s-2-3-3-4c-1-3-5-6-8-6-1 0-3.2 1-6 2zM85 123.7c-2.8 1-6.6 1.2-10 1-5-.7-9.3.4-7.8 1.8 1.2 1.2 15.4 1.7 20.8.7 4.3-.8 7.3-.7 13.8.6 7.7 1.5 9 1.5 16.5 0 4.5-1 12-1.8 16.7-1.8h8.5l-4-1.7c-5.6-2.2-47.8-2.7-54.5-.6zm-23 14.5c-3.6.4-13.7.5-22.5.2C25 138 23 138 18 139.8c-3 1-6.4 2.3-7.5 2.5-1 .3 3 .5 9 .5 6.5 0 13.7.5 17.5 1.5 11.7 2.7 15.3 3 23 1 7.2-1.5 13.7-1.5 26.4.3 3.2.5 8 0 14-1 8.5-1.8 10.5-1.8 20.8-.6 8.3 1 12.5 1 15.4.2 3.8-1 3.7-1-3.2-1-4-.2-9.5-1-12.5-1.8-5-1.3-8-1.5-21-1-12 .6-16 .5-20-.7-8-2-12-2.4-19-1.5zm79.3 4.5c.4.3 1 .3 1.4 0 .3-.4 0-.7-.7-.7s-1 .3-.7.7z"/>
</svg>
