<svg xmlns="http://www.w3.org/2000/svg" version="1" viewBox="0 0 160 160">
  <path fill="#cb5800" d="M47.5 25.4C39 31 29.5 42 25.3 51c-2 4.4-4.3 8-5 8-1.5 0-3 4.8-4.3 13.5-1.4 10.2-1.6 9.8 3 9 3-.5 4-.3 4 .7 0 2.8 7 15.5 11 20l4.2 4.8-1.7 4.8c-2 5-3.4 26.8-2 26l7-3.2c5.2-2.6 6.5-2.8 13-2.3 3.8.3 10 1.7 14 3 3.8 1.5 7 2.5 7.3 2.3 0-.2-3.7-5.4-8.5-11.5-4.8-6-10-13-11.7-15l-3-4 2.6-3c3.7-5.5 8.2-15 10.2-21l1.8-5.2h10l-.7-5.7c-.7-6-3-14-4.5-15.5-.4-.4-4.2.4-8.3 1.8-5 2-9.6 2.7-14 2.7-6.7 0-19-3-20.3-5-.5-1 0-1 1.7-.7 12 3 19 3 27-.5 7-3 9-5 8-8.5-2-9-9.2-24-12-24-.4 0-3.2 1.6-6 3.5zM54 35c4.5 2.4 1 11-4.5 11-3.5 0-6.8-3.5-6-6.3C45 35 50 32.7 54 35zm33.7-11.6c1.2 2 18.5 24 21 26.8l2.5 2.6-3 4.6c-4 5.8-10 18-10.8 22.3-.6 3.2-.8 3.3-5.7 3.3h-5l.6 6.8c.6 7.7 3.2 15.2 5.3 15.2.7 0 3.7-1 6.5-2 10-4 22-3.7 32 .5 5 2 4 3-2 1.5-7-2-17-1.5-23 1.3-9 4.4-9 4-6.2 12.2 2.5 7.6 5.8 14.7 8.8 18.3l2 2.3 6.2-4c9-6 17.3-15 22-25 2.4-4.4 5-8.2 5.6-8.2 1.5 0 3.4-7 4.3-16.6l.7-6-4.3.4c-3.3.6-4 .4-4-1 0-3.3-6-14.4-10.5-19.4l-4.5-5 2-5.7c2-6.4 3.3-17.2 2.4-22L130 23l-5.8 3c-8.3 3-16 3-28-1-5-1.4-8.7-2.2-8.3-1.5zm30 92.2c5 3.3 1.3 10.4-5.2 10.4-5.6 0-7.3-5.3-3-9.5 2.8-3 5-3 8.3-1z"/>
</svg>
