<svg xmlns="http://www.w3.org/2000/svg" width="100" height="1200" viewBox="0 0 100 1200"><style>.a{fill:#cb5800;}</style><svg viewBox="0 0 160 160" width="100" height="100"><g class="a"><path d="m19.7 18.2c-4.7 2.8-8.7 10.4-8.7 16.3 0 2.4 1 6.3 2.6 9.4 3 5 4 6 2.4 1-2.2-8-0.2-18 5-25 1.7-3 3-4 2.8-4l-4 2zm15.7-1.2c-3.8 1.2-9.5 6.6-11.7 11.3-2.3 4.8-3 11.3-2 16.5 1 4.2-0.5 13.5-3.6 21.5-1 4-1 7.2 1 9 3 2.5 5 2 12-2.8 3-2.5 7-4.5 7-4.5 2 0 6 8 9 16.8 3 8.6 5 12 9 16.7 3 4 3 4 2.7 11.5-1 9.3-1.7 22.3-1 27.2 0.6 2.8 1 3.8 2.6 3.8s2-1 2-8c0-7.2 0.4-9.6 4-19.5 5-13 4-12.5 19.5-12.5 10 0 17.4-1.4 23.6-4.6l5-2.4 10.5 13.2c9 11.3 11 14.2 12.7 20 2 6.5 2 9 0.3 13.2-0.5 1.2 0 1.6 2 1.6s2.7-0.7 3.6-4c1.5-6 0.2-17-3-26l-2.7-7.5 2-7.5c1.6-5.2 2.5-10.5 3-17.5 0.2-8.5 1-11 3.2-16 1.5-3.2 3-6.6 3-7.6 0-2 0-2-3 0-4 2-7.8 2-14 0-7.8-3-17-2-27.7 1l-9 3-15.4-1.9c-14.2-2-16-2.7-17.6-4.8-2-2-2.8-2.3-5-1.4-10.4 4-23-7-21-18 1-5 5.7-9.4 9.6-9.4 3 0 4 1.5 1.6 2.4-2.6 1-5 6.8-4.2 10.6 1.6 9.4 12.7 11.7 19 4 2.6-3 3-4 2.5-9.6-1-6-1-6.4 1-6.4 1 0 2.6-0.3 3.3-1 1-0.5 1-1-0.4-1.3h-4c-1.4 0-4.5-1.4-7-3.3-6.8-5-15-6.7-23-4.3zm21.4 17.2c1.6 3.5 0 6.8-3 6.8-4.6 0-6-3.7-3.2-7.8 2-3 4.5-2.5 6.2 1z"/><path d="m109.8 107.2c-1.5 1.2-0.8 2.3 6.2 10.3 7.5 8.5 8 9.3 8 13.6 0 3-0.7 7-1.5 9-2 5-2 5 0.8 5 3 0 5.7-5 5.7-11.3 0-4.5-0.5-5.5-7.6-14.2-10-12.5-9.6-12-11.6-10.6zm-36 9.8c-1.8 4.7-1.8 5.5-0.3 13.6 1 4.7 1.4 9.7 1 11-0.5 2-0.2 2.4 2 2.4 2.3 0 2.5-0.3 2.5-4.8 0-6-2-25.5-3-26.4-0.3-0.4-1.3 1.5-2.3 4.2z"/></g></svg><svg viewBox="0 0 160 160" width="100" height="100" y="100"><g class="a"><path d="m109.5 39.6c-13.6 4-15 4-30 1.8-12.2-1.8-17.4-1.4-24 2-2.4 1.4-6.2 3-8.4 3.6-3 1-4 0.7-9-1.7-5-2.5-6-2.7-16-2.5-8 0-11-0.2-14-1.5l-3-1.6 1.9 2.3c2.5 2.8 6.6 4.6 12.8 5.5 2.8 0.4 6 1.7 7.5 3l2.7 2.3-5.7 5.4c-4 3.8-6 6-6 8 0 1.3-2 5.7-4.5 9.8-5.2 8.6-5.5 11-2 14 4 3 6.3 3.4 9.2 1.5 1.4-1 5.2-2 8.5-2.5 4-0.6 7-1.8 9.3-3.4 2-1.4 3.7-2.6 4-2.6 1 0 25.3 13.4 27.8 15.3 1.3 1 2.2 4 3.3 11.5 1 9.4 1 10.6 0 12.7-3 3.4-2 3.7 2 3.3l3-0.3 2-13 2-12.8 5.3-1.3c7.2-2 12-4.4 20-10.8 8-6.5 10.6-8 12.4-7.4 0.7 0.3 4.2 5.4 8 11.4 6 10.2 6.4 11 6.4 17 0 4-0.6 7-2 8.7l-2 2.7h8.8l1.3-9.6c0.8-5.2 1-12.4 0.8-16-0.7-8.4 0.8-17 3.5-20l3-2.4c1 0 1.5 6 2 13 0.7 12 1 13.4 3 14.7s2 1.3 1.7-0.4c-0.2-1-0.8-11-1.3-22.4-1-28-3.5-34-15-39-7-3-15-3-29.6 1z"/><path d="m5 49.7c2.3 3.3 12.7 7.8 15 6.3 1.5-1 1-1.3-6-3.5-3-1-6.6-2.5-8-3.4-2.2-1-2.2-1-1 1zm109 43.3l-3.4 2.7 3.7 3.3c7 6.2 8.5 12 4 17.7l-2.3 3.3h3.4c2.8 0 3.8-0.6 5.5-3.4 1-2 2-5 2-8 0-4-1-5.7-5-11.6l-5-7-4 3zm-56.5 9.3l2 10c1.4 7.7 1.4 8-0.6 10.8l-2 3h2c4.4 0 6.2-3 5.4-12-1-9-1.3-10-5-12-3.4-1-3.4-1-3 1z"/></g></svg><svg viewBox="0 0 160 160" width="100" height="100" y="200"><path d="m43.2 16c-8.7 4.6-13.7 16.8-11.2 27.6 2.3 11 10 17.4 20.4 17.4 13 0 20.6-8.7 20.6-23.6 0-9-3.3-16.3-9.2-20.2-5.6-3.7-14.6-4.2-20.6-1zm60.8-1c-5 2.2-8.4 5.6-10.8 11-5 11-2.5 24.4 6.2 31.4 3.2 2.7 4.7 3 11 3.4 6.7 0.4 7.4 0.2 12-3 10-6.7 13-20.2 7.3-32-4-8-8.7-11-17-11.5-3.4-0.2-7.3 0.2-8.6 0.7zm-46 51c-19 2-27 5.6-30.5 14.2-4 10-4.2 39-0.3 43 3 3 8 2 10-2 1-1.8 1.8-3 2-2.5 0.4 0.4 1.8 5.3 3.3 10.8s3.5 11.5 4.2 13.2l1.5 3.3h9.8c9.7 0 9.8 0 10.8-2.7 0.6-1.6 1.6-7.8 2.2-13.8 2.5-22.2 7-39 10.7-40.2 3.3-1.3 7 11.7 10.3 35.7 1.2 9 2.6 17.5 3 18.7 1 2.2 1.5 2.3 11 2.3h10l1.4-3.3c0.8-1.7 2.6-8 4-14 1.7-6 3.2-10.7 3.6-10.7s1 1.3 1.3 3c1 5.4 9.5 5.4 11.7 0 2-4.5 0.8-34-1.4-40.2-2.5-6.7-7-10.3-15.3-12.2-14.7-3.3-43-4.5-63.3-2.5z" class="a"/></svg><svg viewBox="0 0 160 160" width="100" height="100" y="300"><path d="m54.4 15.6c-1.8 1-4.2 2.6-5.5 4l-2.9 2.4h3c5 0 15 3 17 5 1.8 1.8 2 2.2 0.6 3-2.3 1.4-9 1.2-14.6-0.5-2.6-0.8-5-1.3-5-1.2 0 0.2 0 2 0.7 4 2 7.4 11 11 27.8 11h10.5l-0.5 7.6c-0.3 4-0.8 9-1.2 11l-0.5 4-6.2-1c-11.3-1-14.6 3-13 15l0.4 6h-22.4l-0.6-11.9c-0.5-14-2-19.5-7-23.6-3.5-3-8.4-3.5-7.3-0.8 2.7 7 2.6 18.2-0.2 18.2-2 0-5.4-8-6-15-0.3-3-1-6-1.4-6-2 0-6 6-6 10.5-2 10.6 1 19 11 29.6 11 12 13 12 39 7 2-1 3 0 3 2 1 2 0 3-2 5-1 1-4 3-5 3s-3 1-3 1c0 2 7 2 9 0l2-2 2 13.3c1 9.2 2 13 3 13.4 2 0.2 2 0 0-16 0-4.6 0-5 2-5 1 0 3.7-1.7 5.5-3.7 3-3.4 3.5-3.4 5-2 1 1 2 2.5 2 3 0 1.8-4 5-6.4 6-1 0.7-3 1.7-3 2.6-1 3 6.3 1 9.3-3 3-3.5 4.8-4 7.7-1.7 2 1.2 1.2 1.3-1 4-1.8 1-4 3-5 3.2-2 1-3.5 4-2 4 1.6 0 6.4-3.3 9.4-6.4 4-4 6.6-4.4 8.8-1 2 1.5 2 2 3 1s2-1 3 2c1 1.4 2 3 3 2.2 1-0.6 2 0.5 3 2.2s2 3 2.3 2c1-0.6 2 1 3 3 1.3 3 1.2 3-0.7 7-2 4-1.7 9 1 9.4 2 0.6 20.7-17 26-24.7 1-2 1-2.3 0-3-2-1.6-8-1-11 0.5-2.3 2-3 2-6 0-1.5-1-3-2-2.4-2 0-0.7-1-1.8-3-2.7-2-1-3-2-2.7-2.5 0 0-1-1.3-2.7-2-2.5-1.4-3-2-2-3s1-1.8-1-2.8c-3-2-2.4-5 2-9.6 4.6-4.6 7-10 4.2-9.4-1 0.8-2.2 2-3 3-1.3 3-4.3 6-6 6-0.3 0-1.4-1-2-2.4-1-2-1-3 2.5-6 2.5-2 3.5-4 3.5-6 0-4-2.5-4-3-0.6 0 1-1.7 3-3 5l-3 2.2-2-2.6-2-2.6 3-3c1-1.8 3-4 3-5 0-2 0-2 13.3-1 5 0.4 8 0.3 8 0 0-1-3-2-16.6-3.6-5.8-0.6-10-1.3-10.7-1.5 0 0 0-1 1-2 2-2 2-6 1-8-1-1.3-1-1-2 0.7-1 1-1 2.6-1 3 1 1.6-5 6.5-8 6.5s-3-0.5-2.3-3.6c5-28 5-27-5-37.3-9-9-17-13-25-13-3.2 0-7.3 0.4-9 1.3zm51 56c2.4 1 2 2.7-1.4 6l-3 2.8-2.2-2.2-2.2-2.2 2.4-2.5c2.4-2.6 3.7-3 6.4-2zm-28 28.8c1.5 2.4 1.4 2.6-2 5.5-2 1-4 2-4.5 2-2-1-1-6 1-8 2-3 3-3 5 0z" class="a"/></svg><svg viewBox="0 0 160 160" width="100" height="100" y="400"><g class="a"><path d="m24.6 30c-4.3 2.5-8.3 5.5-9 6.6-0.4 1-2.7 4-4.8 6.6l-4 4.7 3.2 4c1.6 2.2 3 5 3 6s1 1 3 0.2c2.5-0.5 3.3 0 8.6 6 3.4 4 6.7 9 7.7 11.5l1.7 5-5 4.4c-3 3-5 6-7 10-1 3-2 6-3 6.3l-2 3c-0.2 2 0 2.3 4 2.3h4l4-8 4-7.7 8-2 8-1.7 17 3.8c12.6 2.3 19.7 3 28 3 6 0 11.7 0 12.6-0.3 1.2-0.6 4.6 3 10.8 10.3l9 11v5.8c0 5-0.2 6-2 7-1 1-2 2.5-2 3.7 0 2 0.7 2.4 4.7 2.4h5l3-10.8c4-11 4-9-3.2-21-2-3.3-3.5-7.3-3.5-9 0-3 4-20.7 4.8-21.6 1.3-1.5 2.4 3.4 2.4 11 0 15 3 20 11 20 5 0 8-1.5 8-4s-4.6-2.5-7.6-0.5c-2.7 2-5.3 0.4-6.6-4.2-0.4-2-1-8-1-14 0-5.4-0.3-11-1-12.3-1.2-3.8-6-8-12-10.8-5.7-2.5-6-2.5-27-2.3-25.3 0.4-23.6 1-35.6-12.2-7.8-7.2-9.4-8.2-18.8-13.2-5.6-2.8-10.6-5-11-5s-4.3 2.3-8.7 5z"/><path d="m44 97c-6.6 1.4-7.4 2-9 5-2.4 4.5-2.5 6 0 6 1 0 2.6-1.4 3.8-3.4 1.8-3 2.8-3.5 11-5.6 5-1.2 9.2-2.4 9.2-2.5 0-1-9-0.8-15 0.5zm54.6 6.8c-0.3 0.5 2.4 3.7 6 7.2 6.4 6.4 6.4 6.5 6.4 12 0 4.2-0.4 6-1.5 6.4-0.8 0.3-1.5 1.7-1.5 3 0 2.3 0.4 2.6 3.5 2.6 3.4 0 3.5 0 3.5-4 0-2.4 0.5-4 1.5-4.4s1.5-2 1.5-5c0-3.8-0.6-4.8-6.6-11.4-5.2-5.7-7-7.2-9.4-7.2-1.6 0-3 0.4-3.4 0.8z"/></g></svg><svg viewBox="0 0 160 160" width="100" height="100" y="500"><path d="m86 18c-13 2.4-23 9-27.5 18.5-2.5 5-2.6 6-2.4 18.7l1 13.3-3 6.2-4 6.3 2.3 2c1 1.2 2 3.2 2 4.3 0 1 1 2.6 1.7 3.3 0 0.6 1 1.5 1 2-1 0.4 0 1.3 1 2 1 0.5 2 2.3 2 5 0.3 2.2 0.7 4.3 1 4.5 1 1 23-1 29.2-3 8.4-2 10.8-5 10-12-1.6-12-1.2-11-10-14-4.3-1.1-10.3-3.1-13.3-5.1-5.5-3-19-15-18-16 0.6-0.2 2 0.6 3.7 2 4 4 11.2 7 27 12l14.5 4 1.3 8c4 24-1.5 28-41.6 31-23 2-28 3-35 10-5 4.2-10.6 13-12 18.5l-1 2 8-2.5c11-3.8 22.4-4 42.4-2 17.6 2 27 1.5 37.2-1 27-7 41.7-27.4 41.7-58 0-24.4-9.5-44.4-25.6-54-8-5-24.3-8-34-6z" class="a"/></svg><svg viewBox="0 0 160 160" width="100" height="100" y="600"><path d="m77 16.8c0 2.6-0.6 5.7-1.4 6.8-0.8 1-1.6 4.3-1.8 7l-0.3 5-6.5 0.6c-39.4 4-47.6 5-48.5 6-1.6 1.5 1 4.3 4.4 4.6 1 0.2 3 0.8 3 1.5s-4.9 12.7-9.9 27.2c-4.8 14.5-9 27.3-9 28.7 0 8.8 18.4 15 29.5 10 4.5-2 9.5-7.4 9.5-10 0-1-4.3-13.6-9.5-28s-9.5-27-9.5-27.7c0-1.3 3.4-1.5 23.7-1.5h23.6l-0.6 20.7c-0.4 11.5-0.7 30.4-0.7 42v21.3h-4c-3 0-4.3 0.6-6 2.6-1 1.5-2 3.3-2 4 0 1-1.4 1.4-5 1.4-5.3 0-8 2.2-8 6.7v2.3h31.5c34.6 0 34 0 31-6-1.3-2.6-2-3-6.7-3.2-4.4-0.2-5.3-0.6-5.6-2.3-0.7-3.5-3.3-5.5-7.2-5.5h-3.7l-0.6-12.2c-0.4-6.6-0.7-25.5-0.7-42v-29.8h23.5c14 0 23.5 0.4 23.5 1 0 0.5-4.3 12.7-9.6 27.2s-9.6 27.4-9.6 28.6c0 3.4 3.2 7.3 8.3 10 6 2.8 16 3 22 0.3 4.8-2 9.8-7 9.8-9 0-1-4.2-13.4-9.4-27.6-5.5-14.5-10-27-10-28s1-2 2-2c3.5 0 5-1 5-3.3 0-2-0.4-2.4-6-3l-27.5-3.2-21-2.3-0.4-5.3c-0.2-3.5-0.8-5.5-1.8-6-0.8-0.2-1.4-1.8-1.4-4 0-6-1-8.2-3.2-8.2s-2.3 0.8-2.3 5zm-43 62c4 11.2 6.7 21 6.4 21.4s-6.8 0.8-14.5 0.8c-11 0-14-0.3-14-1.3s11.1-35.2 13.1-41.7c0.3-0.7 0.8-1 1.2-0.6 0.4 0.3 3.7 10 7.4 21.3zm107-0.7c3.8 12 6.7 22 6.4 22-0.3 1-6.8 1-14.5 1-11 0-14 0-14-1 0-2 13-43 14-43 0 0 4 10 8 21z" class="a"/></svg><svg viewBox="0 0 160 160" width="100" height="100" y="700"><path d="m55 8.9c-4.5 1.4-8.4 3.8-11.8 7.3l-3.2 3.4 8.7-0.3c9.6-0.4 12.6 0.5 10.4 3.1-0.8 0.9-3.1 1.9-5.2 2.2-4.5 0.7-4.2 1.7 1.1 4.4 5.1 2.6 13 2.7 16 0.2 2.2-1.8 2.4-1.8 7.1 1.2 4.2 2.7 4.8 3.5 4.8 6.7 0.1 2 0.6 4.9 1.1 6.6 1 2.7 0.7 3.3-2.8 6.9-2.1 2.3-5.3 4.6-7.1 5.2-3 1-3.5 0.9-5.2-1.1l-1.8-2.2 0.6 2.3c0.7 2.8-1.4 7-3.9 7.8-2.4 0.7-2.3 2.4 0.2 2.4 1.7 0 2 0.7 2 4.2-0.1 2.4-0.7 5.4-1.5 6.8s-1.4 3.5-1.5 4.7c0 2-0.6 2.3-3.7 2.3-2.1 0.1-5.1 0.7-6.8 1.4-2.6 1.1-3.3 1.1-5.5-0.4-1.4-1-3.5-2.1-4.8-2.4-1.9-0.7-2.2-1.2-1.6-4.1 1.1-6.3-4.9-15.4-11.9-17.8-1.6-0.6-1.6-0.5-0.2 2.4 1.9 3.7 1.6 7.3-0.6 7.7-1.6 0.3-3.4-2.7-7.9-13.3l-1.3-3-1.5 3.5c-2.4 5.6-2.7 12.4-0.8 17.5 2 5.2 7.6 10.5 11.1 10.5 1.8 0 2.8 0.8 3.9 3.2 3.2 7.6 8.6 10.1 19.8 9.2 8.6-0.8 13.5-3 15.3-7.2 0.5-1.2 1.4-2.2 1.9-2.2 0.6 0 2.3-1.2 3.8-2.7 2.6-2.5 2.9-2.6 4.5-1.1 1.4 1.5 1.4 2.2 0.3 6.2s-1.7 4.7-5.6 6.2c-4.2 1.6-7.4 5.1-3.6 4 0.9-0.3 3.6-1 5.9-1.6 3.6-0.9 4.3-1.5 5.5-5.2 1.7-4.9 2.7-5.5 5.7-3.1 1.9 1.6 2 2.2 1 5.5-0.8 2.5-2.1 4.1-4 4.8-3 1.3-5.5 3.7-4.7 4.5 0.3 0.3 2.6-0.3 5.1-1.2 3.9-1.4 4.9-2.3 5.8-5.3 1.7-5.1 1.7-5.1 5-3.4 2 1 2.9 2 2.5 3-0.3 0.9-0.6 2.1-0.6 2.9 0 0.7-1.3 1.8-3 2.5-3 1.3-5.6 3.7-4.8 4.5 0.2 0.3 2.5-0.2 5.1-1.1 3.8-1.3 4.8-2.2 5.7-5 0.6-1.9 1.7-3.4 2.3-3.4 6.6 0.1 7.8 4.6 2.2 7.9-3.4 2-5.3 4.6-4.2 5.7 0.3 0.3 2.6-0.6 5.1-2.1 3.5-2.1 4.8-3.6 5.7-6.6 0.7-2.3 1.9-3.9 2.8-4 7.4-0.6 8.4-0.4 9.2 1.9 0.7 1.9 2.5 2.7 5.2 2.3 0.4-0.1 1.2 1.1 1.7 2.5 0.6 1.4 1.9 2.8 2.9 3.1 1.9 0.5 3.3 6.1 2.7 10.8-0.6 5.1-5.4 10.4-9.3 10.5-1.2 0-2.5 0.5-2.8 1-0.5 0.8-1.1 0.7-2.1-0.1-0.8-0.6-2.6-0.9-4.2-0.6s-3.5 0-4.6-0.9c-3.1-2.2-6.5-1.7-9.7 1.5-3.6 3.7-3.7 6.9-0.3 14.1l2.6 5.5 1.4-3c0.7-1.7 1.3-3.5 1.4-4.1 0-0.6 1.1-1.6 2.5-2.2s2.5-1.5 2.5-2c0-1 9.2-0.8 10.9 0.2 0.7 0.4 2.2 0.1 3.5-0.8 1.3-0.8 3.3-1.2 4.4-0.9 1.3 0.3 2.7-0.3 3.9-1.6 1-1.2 3-3.3 4.6-4.8 1.5-1.4 2.7-3.5 2.7-4.5s0.6-2.9 1.4-4.1c0.9-1.4 1.4-4.7 1.3-9.2-0.2-6.2-0.4-7.1-2.4-8-1.5-0.6-2.3-1.8-2.3-3.5 0-3.2-1.7-5-4.7-5-1.5 0-2.3-0.6-2.3-1.8 0-2.5-1.9-4.2-4.7-4.2-1.7 0-2.7-1.1-4.2-4.3l-2-4.2 3.5-3.5c2.9-3.1 3.4-4.3 3.4-8.3 0-2.6-0.4-4.7-1-4.7-1.4 0-3 3.5-3 6.4 0 1.5-0.8 3-2.1 3.7-1.7 0.9-2.5 0.7-4.6-1.3l-2.4-2.3 3.1-2.8c2.9-2.6 3-3 2.4-7.7-0.5-4.1-0.9-4.8-2-3.9-0.8 0.6-1.4 2.8-1.4 4.9 0 2.8-0.6 4.1-2.3 5.3-2.1 1.4-2.5 1.3-4.8-0.3l-2.4-1.9 3.3-3.4c3.1-3.2 3.3-3.7 2.6-8.6-0.5-4.2-0.9-4.9-2-4-0.8 0.6-1.4 2.8-1.4 4.8 0 2.8-0.7 4.4-2.9 6.5-2.5 2.4-3.1 2.6-5.5 1.5-3.4-1.6-3.3-2.6 1-7l3.6-3.7-1.3-5.6c-1.5-6.7-2.9-6.4-2.9 0.8 0 4.6-0.4 5.6-3.4 8.5s-3.7 3.1-5.6 2.1c-1.4-0.8-1.9-1.7-1.5-2.8 0.3-0.9 0.9-3.1 1.2-4.7 0.4-1.7 1.3-4 2.1-5.3 3-4.6 1.9-10.8-3.6-22.2-2.1-4.2-8.3-8-13.4-8-2.7 0-4-0.6-4.8-2.1-2.3-4.3-11.7-6.9-18-5z" class="a"/></svg><svg viewBox="0 0 160 160" width="100" height="100" y="800"><path d="m125 8.2c-2 5.8-5.4 7.5-19 9.4-6 0.8-13.6 2.4-16.7 3.5-15 5.6-26 17-30 32-0.8 4-1.7 7-1.8 7-0.2 0-3.3-1.2-7-3.3-5.4-3-6.4-4.2-6-6 0.4-2-0.4-2.3-11.5-5l-12-3 8.2 8.8c4.4 5 8.3 9 8.6 9s1-0.6 1.6-1.4c1-1.2 7.6 2.4 39 21 21 12.4 38.4 23 38.7 23 1 0.6 1 1.8 1.8 3 0.6 2-1 3-14.6 10l-33 18-17.3 9.8-0.7-7c-0.3-4-1.4-10.6-2.3-15-3.6-15.6-1-29 7.5-38l4-4-6.7-4c-7.4-5-7.6-5-13 3.3-7.7 11.5-9.2 28.4-4 43l5.2 14.4c2.3 6.5 2 9.2-1.7 13.5-1.4 1.8-2.5 3.6-2.5 4 0 2 4 1.5 6.8-0.6 1.6-1 20-10.6 41-21.5l38.7-20 4.7 2.8 4.8 2.6-1-3.8-0.7-4.3c0-0.2 2-1 4.3-2l4.2-1-4-2.4c-2-1.4-4.3-2.6-4.7-2.7-0.3-0.3-1.2-22-2-48.4-1-43-1.4-48-3-48.4-1-0.2-2 1-3 4zm0.3 50.5c-0.3 36.7-0.3 37.8-2.3 38.5-1.5 0.5-7.7-2.6-26-13.5l-24-14.2 0.5-5.5c1.5-12.7 6.8-21.8 16.5-28 3-2 10-4.8 16-6.6s13-4.4 15.3-5.8l4.2-2.6-0.2 37.7z" class="a"/></svg><svg viewBox="0 0 160 160" width="100" height="100" y="900"><g class="a"><path d="m78.3 14.7c0.4 0.3 1 0.3 1.4 0 0.3-0.4 0-0.7-0.7-0.7s-1 0.3-0.7 0.7zm-25.8 1.3c-10 0.6-13.5 2-22 8.8-3 2.2-6.7 4.7-8.6 5.7-9 4.3-12 10.5-9 15 1 1.2 1 4.3 1 7.8v6l3-4.5c5-6.4 11-8 20-5.7l4.3 1 3 12c1 7 3 17 4.2 23l2.6 11.9-5.5 7-5 7 3 13.6c3 12 3 13 6 14 1.4 0.5 2.7 0.7 3 0.4 0-0.3-0.3-5.7-1-12l-1.5-12 8-4.3 8-4 13.6 2.2c10 1 13.3 2 13 3l-0.2 7c0 10 4.3 19 12.8 24 17.6 11 40.4 0.3 42-19.7 0.7-8.3-1-14-6-21.6-3.3-5-13-14-16-15-0.7-0.3-0.6-1.6 0.4-4.7l1.4-4h11.3c12.6 0 13 0 9-6-3.3-5-6.4-6.6-14.2-8.4-3-1-8-2-9-3-12-7-19-8.5-25-5-3 1.4-3 1.5-1 3 8 5.5 15 12.2 15 13 0 2-14 30.7-15 30.7v-2c1-2.4 8-25 8-26 0-0.6-5.4-5-12.4-10-16-9.7-16.7-10-19-17-2-4.3-6.3-21-6.3-23 0-1.7 19.6 0.7 30 3.3 6 2 11.4 3 11.6 3l-12-5c-21-8.5-29-10.5-45.5-9.5zm74 99c2 1.7 2.5 3 2.5 5.8 0 4.3-1.6 6.7-5.3 8-8 3-14.3-7.3-8.2-13.3 3-3 7.3-3.2 11-0.4zm-44.5-99.7c0 1 15 5.6 20 6 2.8 0.4 5 0.5 5 0.3-1.3-1-25-7-25-6.3z"/><path d="m31.7 86.3l-9 5.2 0.7 13c0.4 7.2 1 14.2 1.2 15.7 0.5 2.6 3.8 4.7 5.2 3.4 0.3-0.4 0.8-6 1-12.6l0.4-12 6-1 6-1.3-0.4-7.5c-0.2-4.2-0.7-7.7-1.3-7.8-0.5-0.2-5 2-9.8 5z"/></g></svg><svg viewBox="0 0 160 160" width="100" height="100" y="1000"><path d="m121.5 20.2c-31 8.8-41.5 14.4-49.3 26.6-4.6 7-5.7 13.6-3.7 21.4 1 3.4 2.3 7.3 3 8.6 1.5 2.2 1.5 2.5 0 4.3-1 2-2.6 2-4 2s-3 1-4.8 3l-2.7 1.9 5.4 6.6c5 6 15.8 16 17.5 16 0 0 2-1.3 3-3 2-2.3 2-3.2 1-4.3-1-1-1-2 0.4-3 2-2 2-2 7.7 1 16.8 8 34-1 44.4-22 2-5 6-15.6 8.5-24 5.4-19 5.4-19-5-29-9-9-10-9.4-22.6-6zm11 7.8c1 1.8-1.5 4-6 5-20.5 5.2-33 10.8-40.5 18-4 4-5.5 6.7-8.6 14.5-0.7 1.7-1 1.5-1.2-1.2-0.2-1.8 0.6-5.3 1.7-7.8 5-13 15-19.8 39-26.6 10-3 14-4 15-2zm-116 64c-7.8 3.3-12 11.5-9.5 19 1.6 5.8 8.4 12.2 15.4 15 12.3 4.5 29.5 1.2 43.8-8.6 3.8-2.5 7-5 7.3-5.3 0.2 0-2-3-4.8-5l-5.2-5-3.5 4c-7.3 10-19.5 17-30.5 17-6 0-12.5-2-12.5-4.2 0-0.7 0.5-0.8 1-0.5 2.4 1.5 14 0.6 17.8-1.4 5.2-2.5 5.6-3.3 3.3-6-1-1.4-2-4-2-5.7 0-2-2-4-3-5s-2-3-3-4c-1-3-5-6-8-6-1 0-3.2 1-6 2zm68.5 31.7c-2.8 1-6.6 1.2-10 1-5-0.7-9.3 0.4-7.8 1.8 1.2 1.2 15.4 1.7 20.8 0.7 4.3-0.8 7.3-0.7 13.8 0.6 7.7 1.5 9 1.5 16.5 0 4.5-1 12-1.8 16.7-1.8h8.5l-4-1.7c-5.6-2.2-47.8-2.7-54.5-0.6zm-23 14.5c-3.6 0.4-13.7 0.5-22.5 0.2-14.5-0.4-16.5-0.4-21.5 1.4-3 1-6.4 2.3-7.5 2.5-1 0.3 3 0.5 9 0.5 6.5 0 13.7 0.5 17.5 1.5 11.7 2.7 15.3 3 23 1 7.2-1.5 13.7-1.5 26.4 0.3 3.2 0.5 8 0 14-1 8.5-1.8 10.5-1.8 20.8-0.6 8.3 1 12.5 1 15.4 0.2 3.8-1 3.7-1-3.2-1-4-0.2-9.5-1-12.5-1.8-5-1.3-8-1.5-21-1-12 0.6-16 0.5-20-0.7-8-2-12-2.4-19-1.5zm79.3 4.5c0.4 0.3 1 0.3 1.4 0 0.3-0.4 0-0.7-0.7-0.7s-1 0.3-0.7 0.7z" class="a"/></svg><svg viewBox="0 0 160 160" width="100" height="100" y="1100"><path d="m47.5 25.4c-8.5 5.6-18 16.6-22.2 25.6-2 4.4-4.3 8-5 8-1.5 0-3 4.8-4.3 13.5-1.4 10.2-1.6 9.8 3 9 3-0.5 4-0.3 4 0.7 0 2.8 7 15.5 11 20l4.2 4.8-1.7 4.8c-2 5-3.4 26.8-2 26l7-3.2c5.2-2.6 6.5-2.8 13-2.3 3.8 0.3 10 1.7 14 3 3.8 1.5 7 2.5 7.3 2.3 0-0.2-3.7-5.4-8.5-11.5-4.8-6-10-13-11.7-15l-3-4 2.6-3c3.7-5.5 8.2-15 10.2-21l1.8-5.2h10l-0.7-5.7c-0.7-6-3-14-4.5-15.5-0.4-0.4-4.2 0.4-8.3 1.8-5 2-9.6 2.7-14 2.7-6.7 0-19-3-20.3-5-0.5-1 0-1 1.7-0.7 12 3 19 3 27-0.5 7-3 9-5 8-8.5-2-9-9.2-24-12-24-0.4 0-3.2 1.6-6 3.5zm6.5 9.6c4.5 2.4 1 11-4.5 11-3.5 0-6.8-3.5-6-6.3 1.5-4.7 6.5-7 10.5-4.7zm33.7-11.6c1.2 2 18.5 24 21 26.8l2.5 2.6-3 4.6c-4 5.8-10 18-10.8 22.3-0.6 3.2-0.8 3.3-5.7 3.3h-5l0.6 6.8c0.6 7.7 3.2 15.2 5.3 15.2 0.7 0 3.7-1 6.5-2 10-4 22-3.7 32 0.5 5 2 4 3-2 1.5-7-2-17-1.5-23 1.3-9 4.4-9 4-6.2 12.2 2.5 7.6 5.8 14.7 8.8 18.3l2 2.3 6.2-4c9-6 17.3-15 22-25 2.4-4.4 5-8.2 5.6-8.2 1.5 0 3.4-7 4.3-16.6l0.7-6-4.3 0.4c-3.3 0.6-4 0.4-4-1 0-3.3-6-14.4-10.5-19.4l-4.5-5 2-5.7c2-6.4 3.3-17.2 2.4-22l-0.6-3.6-5.8 3c-8.3 3-16 3-28-1-5-1.4-8.7-2.2-8.3-1.5zm30 92.2c5 3.3 1.3 10.4-5.2 10.4-5.6 0-7.3-5.3-3-9.5 2.8-3 5-3 8.3-1z" class="a"/></svg></svg>